<?xml version="1.0" encoding="UTF-8"?>
<!DOCTYPE svg PUBLIC "-//W3C//DTD SVG 1.1//EN" "http://www.w3.org/Graphics/SVG/1.1/DTD/svg11.dtd">
<svg xmlns="http://www.w3.org/2000/svg" version="1.1" width="345px" height="292px" style="shape-rendering:geometricPrecision; text-rendering:geometricPrecision; image-rendering:optimizeQuality; fill-rule:evenodd; clip-rule:evenodd" xmlns:xlink="http://www.w3.org/1999/xlink">
<g><path style="opacity:1" fill="#f7f6f6" d="M -0.5,-0.5 C 114.5,-0.5 229.5,-0.5 344.5,-0.5C 344.5,96.8333 344.5,194.167 344.5,291.5C 229.5,291.5 114.5,291.5 -0.5,291.5C -0.5,194.167 -0.5,96.8333 -0.5,-0.5 Z"/></g>
<g><path style="opacity:1" fill="#fbede6" d="M 225.5,79.5 C 225.666,74.4889 225.499,69.4889 225,64.5C 224.5,64 224,63.5 223.5,63C 204.18,63.177 184.846,63.5103 165.5,64C 163.277,64.5662 161.277,65.3995 159.5,66.5C 156.527,67.8103 154.193,69.8103 152.5,72.5C 152.5,70.1667 152.5,67.8333 152.5,65.5C 155.607,65.6488 158.607,65.1488 161.5,64C 159.893,62.951 159.227,61.451 159.5,59.5C 168.946,59.9899 178.446,59.9899 188,59.5C 195.578,59.6055 203.078,60.2722 210.5,61.5C 214.864,61.0303 219.198,60.3636 223.5,59.5C 218.092,59.31 212.759,58.9767 207.5,58.5C 207.5,57.5 207.5,56.5 207.5,55.5C 212.812,56.1095 218.146,56.6095 223.5,57C 225.249,58.2915 227.082,59.4582 229,60.5C 229.353,67.2657 228.186,73.599 225.5,79.5 Z"/></g>
<g><path style="opacity:1" fill="#c1512e" d="M 225.5,79.5 C 224.532,81.6074 224.198,83.9407 224.5,86.5C 223.5,86.5 222.5,86.5 221.5,86.5C 221.5,85.5 221.5,84.5 221.5,83.5C 223.991,77.7163 223.991,71.883 221.5,66C 201.826,66.0944 182.159,66.5944 162.5,67.5C 161.209,67.7373 160.209,67.404 159.5,66.5C 161.277,65.3995 163.277,64.5662 165.5,64C 184.846,63.5103 204.18,63.177 223.5,63C 224,63.5 224.5,64 225,64.5C 225.499,69.4889 225.666,74.4889 225.5,79.5 Z"/></g>
<g><path style="opacity:1" fill="#fde0d3" d="M 221.5,83.5 C 221.807,77.9066 221.473,72.4066 220.5,67C 201.341,68.3907 182.008,68.8907 162.5,68.5C 162.5,68.1667 162.5,67.8333 162.5,67.5C 182.159,66.5944 201.826,66.0944 221.5,66C 223.991,71.883 223.991,77.7163 221.5,83.5 Z"/></g>
<g><path style="opacity:1" fill="#d55027" d="M 205.5,84.5 C 206.5,84.8333 207.167,85.5 207.5,86.5C 207.5,86.8333 207.5,87.1667 207.5,87.5C 211.386,89.275 215.72,90.1084 220.5,90C 216.975,90.1787 213.641,90.6787 210.5,91.5C 208.73,93.5024 207.397,95.8357 206.5,98.5C 205.662,98.1583 205.328,97.4916 205.5,96.5C 205.5,94.8333 205.5,93.1667 205.5,91.5C 202.545,92.1587 199.545,92.4921 196.5,92.5C 196.5,91.5 196.5,90.5 196.5,89.5C 199.4,89.7204 202.067,89.0538 204.5,87.5C 204.137,86.8165 203.804,86.1499 203.5,85.5C 203.409,83.3023 204.075,82.9689 205.5,84.5 Z"/></g>
<g><path style="opacity:1" fill="#c1502d" d="M 205.5,84.5 C 204.075,82.9689 203.409,83.3023 203.5,85.5C 197.647,80.9504 192.813,81.9504 189,88.5C 187.172,99.0081 191.338,102.841 201.5,100C 202.705,98.6244 204.038,97.4577 205.5,96.5C 205.328,97.4916 205.662,98.1583 206.5,98.5C 206.167,99.1667 205.833,99.8333 205.5,100.5C 194.957,107.709 188.291,105.209 185.5,93C 186.951,83.8816 192.285,79.5482 201.5,80C 203.751,80.7475 205.084,82.2475 205.5,84.5 Z"/></g>
<g><path style="opacity:1" fill="#fdd4be" d="M 225.5,79.5 C 225.264,82.6085 225.597,85.6085 226.5,88.5C 220.077,88.7912 213.744,88.4578 207.5,87.5C 207.5,87.1667 207.5,86.8333 207.5,86.5C 212.298,87.744 216.965,87.744 221.5,86.5C 222.5,86.5 223.5,86.5 224.5,86.5C 224.198,83.9407 224.532,81.6074 225.5,79.5 Z"/></g>
<g><path style="opacity:1" fill="#fbe9e0" d="M 203.5,85.5 C 203.804,86.1499 204.137,86.8165 204.5,87.5C 202.067,89.0538 199.4,89.7204 196.5,89.5C 196.5,90.5 196.5,91.5 196.5,92.5C 199.545,92.4921 202.545,92.1587 205.5,91.5C 205.5,93.1667 205.5,94.8333 205.5,96.5C 204.038,97.4577 202.705,98.6244 201.5,100C 191.338,102.841 187.172,99.0081 189,88.5C 192.813,81.9504 197.647,80.9504 203.5,85.5 Z"/></g>
<g><path style="opacity:1" fill="#c25730" d="M 207.5,87.5 C 213.744,88.4578 220.077,88.7912 226.5,88.5C 231.595,88.7787 236.595,88.4454 241.5,87.5C 242.833,87.5 244.167,87.5 245.5,87.5C 245.64,89.1238 244.973,90.2904 243.5,91C 232.505,91.4998 221.505,91.6665 210.5,91.5C 213.641,90.6787 216.975,90.1787 220.5,90C 215.72,90.1084 211.386,89.275 207.5,87.5 Z"/></g>
<g><path style="opacity:1" fill="#fddaca" d="M 205.5,100.5 C 205.833,99.8333 206.167,99.1667 206.5,98.5C 207.397,95.8357 208.73,93.5024 210.5,91.5C 221.505,91.6665 232.505,91.4998 243.5,91C 244.973,90.2904 245.64,89.1238 245.5,87.5C 244.167,87.5 242.833,87.5 241.5,87.5C 242.455,85.2901 243.955,84.9568 246,86.5C 246.743,88.4406 246.576,90.2739 245.5,92C 233.838,92.4999 222.171,92.6665 210.5,92.5C 211.328,96.8619 209.661,99.5285 205.5,100.5 Z"/></g>
<g><path style="opacity:1" fill="#ac633e" d="M 222.5,95.5 C 223.167,94.1667 223.833,94.1667 224.5,95.5C 224.827,105.348 224.494,115.014 223.5,124.5C 223.827,114.652 223.494,104.986 222.5,95.5 Z"/></g>
<g><path style="opacity:1" fill="#fbeee4" d="M 140.5,90.5 C 140.297,92.0443 139.63,93.3777 138.5,94.5C 141.203,96.6323 142.87,99.2989 143.5,102.5C 144.5,102.5 145.5,102.5 146.5,102.5C 146.297,100.61 146.963,99.1096 148.5,98C 150.246,97.5291 151.913,96.8624 153.5,96C 152.692,95.6924 152.025,95.1924 151.5,94.5C 152.667,94.1667 153.833,93.8333 155,93.5C 159.47,96.1484 164.304,97.8151 169.5,98.5C 169.5,99.5 169.5,100.5 169.5,101.5C 165.021,102.01 161.188,100.677 158,97.5C 155.98,98.0319 155.147,99.3652 155.5,101.5C 158.582,102.13 161.582,103.13 164.5,104.5C 165.447,106.059 166.113,107.726 166.5,109.5C 165.448,111.223 165.448,112.89 166.5,114.5C 165.147,115.524 164.48,116.857 164.5,118.5C 169.233,118.777 173.9,118.443 178.5,117.5C 178.736,118.247 179.07,119.08 179.5,120C 181.246,120.471 182.913,121.138 184.5,122C 184.167,122.333 183.833,122.667 183.5,123C 184.667,124.167 185.833,125.333 187,126.5C 187.226,130.887 187.726,135.221 188.5,139.5C 187.568,141.795 186.735,144.129 186,146.5C 182.983,148.021 181.15,147.021 180.5,143.5C 178.891,146.894 176.224,148.227 172.5,147.5C 175.099,145.521 177.765,143.521 180.5,141.5C 185.793,144.142 186.459,143.309 182.5,139C 188.009,133.364 187.676,128.031 181.5,123C 179.283,121.725 176.949,120.725 174.5,120C 169.789,120.015 165.122,120.348 160.5,121C 157.687,117.353 154.687,113.853 151.5,110.5C 154.29,106.953 157.457,106.62 161,109.5C 163.774,107.754 163.274,106.254 159.5,105C 155.569,104.071 152.069,104.904 149,107.5C 144.746,104.591 143.913,105.257 146.5,109.5C 142.136,114.946 141.469,120.78 144.5,127C 150.263,130.321 155.763,129.821 161,125.5C 166.031,130.922 171.531,135.755 177.5,140C 173.987,145.193 169.321,146.693 163.5,144.5C 161.678,141.893 162.178,139.893 165,138.5C 165.813,136.564 166.313,134.564 166.5,132.5C 165.5,132.5 164.5,132.5 163.5,132.5C 163.068,127.805 161.401,126.972 158.5,130C 145.528,133.344 139.694,128.511 141,115.5C 142.167,113.833 143.333,112.167 144.5,110.5C 143.675,109.614 142.675,109.281 141.5,109.5C 141.433,107.599 141.767,105.766 142.5,104C 140.571,102.306 139.571,100.139 139.5,97.5C 138.167,97.5 136.833,97.5 135.5,97.5C 136.167,100.5 136.833,103.5 137.5,106.5C 134.976,105.188 132.309,104.688 129.5,105C 126.093,107.643 124.093,111.143 123.5,115.5C 122.707,115.069 121.873,114.735 121,114.5C 119.221,116.946 116.888,118.613 114,119.5C 113.798,121.256 113.298,122.922 112.5,124.5C 110.447,122.064 108.614,122.398 107,125.5C 105.699,127.365 105.365,129.365 106,131.5C 109.333,133.667 112.166,136.334 114.5,139.5C 110.895,137.073 107.395,134.407 104,131.5C 103.506,129.866 103.34,128.199 103.5,126.5C 117.157,115.842 129.491,103.842 140.5,90.5 Z"/></g>
<g><path style="opacity:1" fill="#facebb" d="M 119.5,108.5 C 118.089,110.914 116.089,112.581 113.5,113.5C 114.502,111.989 115.169,110.322 115.5,108.5C 116.833,108.5 118.167,108.5 119.5,108.5 Z"/></g>
<g><path style="opacity:1" fill="#fdd2bd" d="M 224.5,95.5 C 225.166,100.656 225.499,105.989 225.5,111.5C 225.495,117.211 224.828,122.544 223.5,127.5C 223.5,126.5 223.5,125.5 223.5,124.5C 224.494,115.014 224.827,105.348 224.5,95.5 Z"/></g>
<g><path style="opacity:1" fill="#bc5134" d="M 159.5,66.5 C 160.209,67.404 161.209,67.7373 162.5,67.5C 162.5,67.8333 162.5,68.1667 162.5,68.5C 160.059,69.5566 157.725,70.89 155.5,72.5C 150.454,78.5385 145.454,84.5385 140.5,90.5C 129.491,103.842 117.157,115.842 103.5,126.5C 101.72,127.99 101.054,129.99 101.5,132.5C 99.0578,130.861 98.8911,128.861 101,126.5C 105.37,122.298 109.537,117.964 113.5,113.5C 116.089,112.581 118.089,110.914 119.5,108.5C 130.491,96.5413 141.491,84.5413 152.5,72.5C 154.193,69.8103 156.527,67.8103 159.5,66.5 Z"/></g>
<g><path style="opacity:1" fill="#c45131" d="M 172.5,147.5 C 169.13,149.059 165.964,148.726 163,146.5C 162.308,145.563 162.475,144.897 163.5,144.5C 169.321,146.693 173.987,145.193 177.5,140C 171.531,135.755 166.031,130.922 161,125.5C 155.763,129.821 150.263,130.321 144.5,127C 141.469,120.78 142.136,114.946 146.5,109.5C 143.913,105.257 144.746,104.591 149,107.5C 152.069,104.904 155.569,104.071 159.5,105C 163.274,106.254 163.774,107.754 161,109.5C 157.457,106.62 154.29,106.953 151.5,110.5C 154.687,113.853 157.687,117.353 160.5,121C 165.122,120.348 169.789,120.015 174.5,120C 176.949,120.725 179.283,121.725 181.5,123C 187.676,128.031 188.009,133.364 182.5,139C 186.459,143.309 185.793,144.142 180.5,141.5C 177.765,143.521 175.099,145.521 172.5,147.5 Z"/></g>
<g><path style="opacity:1" fill="#feddc9" d="M 181.5,127.5 C 184.571,131.48 183.904,134.813 179.5,137.5C 178.145,136.812 177.145,135.812 176.5,134.5C 177.531,133.751 178.698,133.085 180,132.5C 180.333,132.833 180.667,133.167 181,133.5C 181.495,131.527 181.662,129.527 181.5,127.5 Z"/></g>
<g><path style="opacity:1" fill="#f7f3f1" d="M 181.5,127.5 C 181.662,129.527 181.495,131.527 181,133.5C 180.667,133.167 180.333,132.833 180,132.5C 178.698,133.085 177.531,133.751 176.5,134.5C 174.596,134.262 173.262,133.262 172.5,131.5C 171.265,129.227 171.598,127.394 173.5,126C 176.174,126.153 178.84,126.653 181.5,127.5 Z"/></g>
<g><path style="opacity:1" fill="#fde5d6" d="M 181.5,127.5 C 178.84,126.653 176.174,126.153 173.5,126C 171.598,127.394 171.265,129.227 172.5,131.5C 161.115,124.695 162.115,121.862 175.5,123C 177.747,124.277 179.747,125.777 181.5,127.5 Z"/></g>
<g><path style="opacity:1" fill="#fcdcc4" d="M 146.5,123.5 C 144.786,119.386 145.62,115.719 149,112.5C 152.549,115.713 155.716,119.213 158.5,123C 157.192,125.573 155.026,126.74 152,126.5C 149.345,126.876 147.512,125.876 146.5,123.5 Z"/></g>
<g><path style="opacity:1" fill="#faf3f0" d="M 146.5,123.5 C 147.462,114.81 150.628,114.143 156,121.5C 156.483,122.448 156.649,123.448 156.5,124.5C 154.801,124.62 153.135,124.954 151.5,125.5C 149.823,124.813 148.156,124.146 146.5,123.5 Z"/></g>
<g><path style="opacity:1" fill="#cf4e29" d="M 103.5,126.5 C 103.34,128.199 103.506,129.866 104,131.5C 107.395,134.407 110.895,137.073 114.5,139.5C 116.88,142.881 119.88,145.547 123.5,147.5C 131.573,158.296 140.573,168.296 150.5,177.5C 150.833,177.5 151.167,177.5 151.5,177.5C 152.74,180.412 154.74,182.746 157.5,184.5C 157.833,184.5 158.167,184.5 158.5,184.5C 158.866,185.695 159.699,186.361 161,186.5C 162.95,186.293 164.116,185.293 164.5,183.5C 165.167,183.167 165.833,182.833 166.5,182.5C 168.23,181.974 169.564,180.974 170.5,179.5C 172.262,178.738 173.262,177.404 173.5,175.5C 174.833,175.5 175.5,176.167 175.5,177.5C 172.902,181.438 169.902,185.105 166.5,188.5C 164.634,189.014 162.8,189.68 161,190.5C 159.5,190 158,189.5 156.5,189C 146.573,179.571 137.24,169.737 128.5,159.5C 124.053,153.263 118.719,147.93 112.5,143.5C 108.527,140.194 104.86,136.527 101.5,132.5C 101.054,129.99 101.72,127.99 103.5,126.5 Z"/></g>
<g><path style="opacity:1" fill="#fedfca" d="M 112.5,143.5 C 118.719,147.93 124.053,153.263 128.5,159.5C 124.944,157.782 122.11,155.116 120,151.5C 116.567,149.571 114.067,146.904 112.5,143.5 Z"/></g>
<g><path style="opacity:1" fill="#faefe6" d="M 163.5,168.5 C 162.967,173.766 162.967,179.1 163.5,184.5C 162.167,184.5 160.833,184.5 159.5,184.5C 158.761,178.573 158.761,172.573 159.5,166.5C 159.44,165.957 159.107,165.624 158.5,165.5C 156.297,171.733 155.964,178.067 157.5,184.5C 154.74,182.746 152.74,180.412 151.5,177.5C 152.909,174.822 152.743,172.156 151,169.5C 150.503,172.146 150.336,174.813 150.5,177.5C 140.573,168.296 131.573,158.296 123.5,147.5C 124.583,147.539 125.583,147.873 126.5,148.5C 131.189,146.484 134.856,147.984 137.5,153C 139.577,153.192 141.577,153.692 143.5,154.5C 142.653,155.845 141.487,156.845 140,157.5C 139.508,158.549 139.674,159.549 140.5,160.5C 139.147,161.524 138.48,162.857 138.5,164.5C 139.5,164.5 140.5,164.5 141.5,164.5C 141.272,162.645 141.939,161.812 143.5,162C 143.038,165.89 144.538,169.057 148,171.5C 148.483,170.552 148.649,169.552 148.5,168.5C 152.779,169.546 155.445,168.046 156.5,164C 157.784,163.316 158.951,163.483 160,164.5C 160.333,162.833 160.667,161.167 161,159.5C 161.204,162.797 162.037,165.797 163.5,168.5 Z"/></g>
<g><path style="opacity:1" fill="#be5334" d="M 222.5,95.5 C 223.494,104.986 223.827,114.652 223.5,124.5C 223.5,125.5 223.5,126.5 223.5,127.5C 222.326,128.514 221.66,129.847 221.5,131.5C 207.86,148.473 192.527,163.806 175.5,177.5C 175.5,176.167 174.833,175.5 173.5,175.5C 173.337,173.143 173.503,170.81 174,168.5C 174.192,170.577 174.692,172.577 175.5,174.5C 191.887,160.614 206.72,145.281 220,128.5C 221.122,117.422 221.955,106.422 222.5,95.5 Z"/></g>
<g><path style="opacity:1" fill="#fdddcf" d="M 170.5,179.5 C 169.564,180.974 168.23,181.974 166.5,182.5C 166.651,176.369 166.651,170.369 166.5,164.5C 165.719,165.729 165.219,167.062 165,168.5C 164.501,173.489 164.334,178.489 164.5,183.5C 164.116,185.293 162.95,186.293 161,186.5C 159.699,186.361 158.866,185.695 158.5,184.5C 157.158,178.293 157.491,172.293 159.5,166.5C 158.761,172.573 158.761,178.573 159.5,184.5C 160.833,184.5 162.167,184.5 163.5,184.5C 162.967,179.1 162.967,173.766 163.5,168.5C 164.185,166.586 164.685,164.586 165,162.5C 165.741,161.359 166.575,161.359 167.5,162.5C 167.863,168.559 168.863,174.226 170.5,179.5 Z"/></g>
<g><path style="opacity:1" fill="#f9f3eb" d="M 221.5,131.5 C 220.412,134.429 219.079,137.263 217.5,140C 217.905,140.945 218.572,141.612 219.5,142C 218.45,144.503 219.45,146.003 222.5,146.5C 223.386,147.325 223.719,148.325 223.5,149.5C 221.143,149.337 218.81,149.503 216.5,150C 215.663,151.011 215.33,152.178 215.5,153.5C 214.178,153.67 213.011,153.337 212,152.5C 209.998,155.253 207.664,156.919 205,157.5C 202.866,154.916 201.032,155.25 199.5,158.5C 205.408,159.495 206.575,162.161 203,166.5C 201.49,164.792 199.99,163.126 198.5,161.5C 197.019,162.48 195.685,163.647 194.5,165C 199.92,169.098 198.92,170.598 191.5,169.5C 191.5,170.833 191.5,172.167 191.5,173.5C 194.572,173.183 197.572,173.516 200.5,174.5C 196.878,175.325 193.211,175.825 189.5,176C 191.039,179.914 189.706,181.581 185.5,181C 184.941,180.275 184.608,179.442 184.5,178.5C 185.543,176.144 186.543,173.81 187.5,171.5C 188.675,171.719 189.675,171.386 190.5,170.5C 189.277,169.386 187.944,169.219 186.5,170C 183.774,173.342 181.108,176.676 178.5,180C 174.346,182.66 170.346,185.493 166.5,188.5C 169.902,185.105 172.902,181.438 175.5,177.5C 192.527,163.806 207.86,148.473 221.5,131.5 Z"/></g>
<g><path style="opacity:1" fill="#966c54" d="M 159.5,166.5 C 157.491,172.293 157.158,178.293 158.5,184.5C 158.167,184.5 157.833,184.5 157.5,184.5C 155.964,178.067 156.297,171.733 158.5,165.5C 159.107,165.624 159.44,165.957 159.5,166.5 Z"/></g>
<g><path style="opacity:1" fill="#9f7959" d="M 151.5,177.5 C 151.167,177.5 150.833,177.5 150.5,177.5C 150.336,174.813 150.503,172.146 151,169.5C 152.743,172.156 152.909,174.822 151.5,177.5 Z"/></g>
<g><path style="opacity:1" fill="#9a5e45" d="M 166.5,182.5 C 165.833,182.833 165.167,183.167 164.5,183.5C 164.334,178.489 164.501,173.489 165,168.5C 165.219,167.062 165.719,165.729 166.5,164.5C 166.651,170.369 166.651,176.369 166.5,182.5 Z"/></g>
<g><path style="opacity:1" fill="#f8f3ec" d="M 289.5,253.5 C 289.5,259.5 289.5,265.5 289.5,271.5C 289.573,273.027 288.906,274.027 287.5,274.5C 284.813,274.664 282.146,274.497 279.5,274C 278.874,273.25 278.374,272.416 278,271.5C 277.5,265.175 277.334,258.842 277.5,252.5C 273.894,252.211 270.394,252.544 267,253.5C 266.237,260.882 266.403,268.216 267.5,275.5C 265.896,274.713 265.229,273.38 265.5,271.5C 264.5,271.5 263.5,271.5 262.5,271.5C 262.806,274.385 262.473,277.052 261.5,279.5C 261.5,270.833 261.5,262.167 261.5,253.5C 258.5,253.5 255.5,253.5 252.5,253.5C 252.5,256.833 252.5,260.167 252.5,263.5C 248.5,263.5 244.5,263.5 240.5,263.5C 240.5,260.167 240.5,256.833 240.5,253.5C 245.144,256.547 248.477,255.381 250.5,250C 249.62,248.644 249.286,247.144 249.5,245.5C 260.446,247.006 271.446,247.839 282.5,248C 283.662,249.827 283.328,251.494 281.5,253C 281.63,254.059 282.13,254.892 283,255.5C 283.499,261.157 283.666,266.824 283.5,272.5C 284.873,272.657 286.207,272.49 287.5,272C 286.194,266.554 286.194,261.054 287.5,255.5C 288.182,254.757 288.849,254.091 289.5,253.5 Z"/></g>
<g><path style="opacity:1" fill="#fbd4be" d="M 98.5,253.5 C 105.321,252.345 112.321,252.179 119.5,253C 120.756,253.417 121.423,254.25 121.5,255.5C 120.167,255.167 118.833,254.833 117.5,254.5C 111.355,253.51 105.022,253.177 98.5,253.5 Z"/></g>
<g><path style="opacity:1" fill="#fed6c0" d="M 161.5,253.5 C 155.056,251.727 151.389,254.061 150.5,260.5C 149.662,260.842 149.328,261.508 149.5,262.5C 147.18,264.226 144.513,264.893 141.5,264.5C 141.5,261.167 141.5,257.833 141.5,254.5C 142.473,256.948 142.806,259.615 142.5,262.5C 144.199,262.66 145.866,262.494 147.5,262C 148.727,258.769 150.394,255.769 152.5,253C 155.696,252.195 158.696,252.362 161.5,253.5 Z"/></g>
<g><path style="opacity:1" fill="#fedeca" d="M 194.5,253.5 C 185.416,253.196 176.416,253.529 167.5,254.5C 171.614,253.174 176.114,252.507 181,252.5C 185.68,252.501 190.18,252.834 194.5,253.5 Z"/></g>
<g><path style="opacity:1" fill="#be542f" d="M 194.5,253.5 C 195.167,253.5 195.5,253.833 195.5,254.5C 195.5,256.5 195.5,258.5 195.5,260.5C 189.167,260.5 182.833,260.5 176.5,260.5C 182.31,259.51 188.31,259.177 194.5,259.5C 194.5,257.833 194.5,256.167 194.5,254.5C 186.16,254.334 177.827,254.5 169.5,255C 168.167,263.667 168.167,272.333 169.5,281C 177.827,281.5 186.16,281.666 194.5,281.5C 194.5,279.833 194.5,278.167 194.5,276.5C 188.31,276.823 182.31,276.49 176.5,275.5C 182.833,275.5 189.167,275.5 195.5,275.5C 195.5,277.5 195.5,279.5 195.5,281.5C 195.5,281.833 195.5,282.167 195.5,282.5C 186.494,282.666 177.494,282.5 168.5,282C 167.516,273.251 167.183,264.418 167.5,255.5C 167.5,255.167 167.5,254.833 167.5,254.5C 176.416,253.529 185.416,253.196 194.5,253.5 Z"/></g>
<g><path style="opacity:1" fill="#e54a1a" d="M 102.5,254.5 C 107.5,254.5 112.5,254.5 117.5,254.5C 118.833,254.833 120.167,255.167 121.5,255.5C 125.667,256.937 127.667,259.937 127.5,264.5C 126.023,266.807 124.023,268.64 121.5,270C 123.141,271.129 124.141,272.629 124.5,274.5C 123.292,273.766 121.959,273.433 120.5,273.5C 120.5,270.833 120.5,268.167 120.5,265.5C 121.833,265.5 123.167,265.5 124.5,265.5C 124.768,262.881 124.435,260.381 123.5,258C 120.792,257.764 118.292,256.931 116,255.5C 115.5,255.833 115,256.167 114.5,256.5C 115.952,257.94 116.952,259.606 117.5,261.5C 116.833,261.167 116.167,260.833 115.5,260.5C 112.375,259.521 109.042,259.187 105.5,259.5C 107.698,258.835 110.031,258.168 112.5,257.5C 108.827,257.948 105.16,257.448 101.5,256C 102.056,255.617 102.389,255.117 102.5,254.5 Z"/></g>
<g><path style="opacity:1" fill="#f44814" d="M 176.5,260.5 C 175.236,262.772 175.402,265.105 177,267.5C 181.401,266.533 185.901,266.2 190.5,266.5C 190.5,267.5 190.5,268.5 190.5,269.5C 185.456,269.173 180.456,269.506 175.5,270.5C 173.991,272.62 174.324,274.287 176.5,275.5C 182.31,276.49 188.31,276.823 194.5,276.5C 194.5,278.167 194.5,279.833 194.5,281.5C 186.16,281.666 177.827,281.5 169.5,281C 168.167,272.333 168.167,263.667 169.5,255C 177.827,254.5 186.16,254.334 194.5,254.5C 194.5,256.167 194.5,257.833 194.5,259.5C 188.31,259.177 182.31,259.51 176.5,260.5 Z"/></g>
<g><path style="opacity:1" fill="#b04929" d="M 289.5,253.5 C 292.5,253.5 295.5,253.5 298.5,253.5C 298.824,260.354 298.491,267.021 297.5,273.5C 297.666,267.491 297.499,261.491 297,255.5C 294.959,254.577 292.792,254.244 290.5,254.5C 290.822,260.358 290.489,266.025 289.5,271.5C 289.5,265.5 289.5,259.5 289.5,253.5 Z"/></g>
<g><path style="opacity:1" fill="#b7542f" d="M 239.5,253.5 C 239.833,253.5 240.167,253.5 240.5,253.5C 240.5,256.833 240.5,260.167 240.5,263.5C 239.527,261.052 239.194,258.385 239.5,255.5C 237.393,254.532 235.059,254.198 232.5,254.5C 232.5,262.833 232.5,271.167 232.5,279.5C 234.279,281.344 236.612,282.01 239.5,281.5C 239.187,277.958 239.521,274.625 240.5,271.5C 240.5,274.833 240.5,278.167 240.5,281.5C 240.5,282.167 240.167,282.5 239.5,282.5C 236.833,282.5 234.167,282.5 231.5,282.5C 231.5,272.833 231.5,263.167 231.5,253.5C 234.167,253.5 236.833,253.5 239.5,253.5 Z"/></g>
<g><path style="opacity:1" fill="#cd4e21" d="M 81.5,253.5 C 81.5,253.833 81.5,254.167 81.5,254.5C 78.1016,254.18 74.7683,254.513 71.5,255.5C 70.3491,257.773 69.3491,260.106 68.5,262.5C 67.8165,262.863 67.1499,263.196 66.5,263.5C 67.1489,260.055 68.4823,256.889 70.5,254C 74.1516,253.501 77.8183,253.335 81.5,253.5 Z"/></g>
<g><path style="opacity:1" fill="#d54e20" d="M 161.5,253.5 C 161.833,253.5 162.167,253.5 162.5,253.5C 161.873,257.42 160.207,260.753 157.5,263.5C 157.579,262.07 157.246,260.736 156.5,259.5C 157.32,257.889 158.654,257.222 160.5,257.5C 160.5,256.5 160.5,255.5 160.5,254.5C 158.473,254.338 156.473,254.505 154.5,255C 153.512,257.167 152.179,259 150.5,260.5C 151.389,254.061 155.056,251.727 161.5,253.5 Z"/></g>
<g><path style="opacity:1" fill="#d27c5d" d="M 135.5,253.5 C 135.5,253.833 135.5,254.167 135.5,254.5C 134.833,254.5 134.5,254.833 134.5,255.5C 133.507,263.984 133.174,272.651 133.5,281.5C 132.507,273.016 132.174,264.349 132.5,255.5C 132.973,254.094 133.973,253.427 135.5,253.5 Z"/></g>
<g><path style="opacity:1" fill="#fa440e" d="M 135.5,254.5 C 137.167,254.5 138.833,254.5 140.5,254.5C 140.5,263.167 140.5,271.833 140.5,280.5C 138.5,280.5 136.5,280.5 134.5,280.5C 134.5,272.167 134.5,263.833 134.5,255.5C 134.5,254.833 134.833,254.5 135.5,254.5 Z"/></g>
<g><path style="opacity:1" fill="#f84610" d="M 254.5,254.5 C 256.467,254.261 258.301,254.594 260,255.5C 260.5,263.827 260.666,272.16 260.5,280.5C 258.5,280.5 256.5,280.5 254.5,280.5C 254.319,277.603 254.652,274.77 255.5,272C 254.48,269.974 252.813,268.641 250.5,268C 252.557,266.281 254.224,264.281 255.5,262C 255.283,259.484 254.95,256.984 254.5,254.5 Z"/></g>
<g><path style="opacity:1" fill="#f64612" d="M 42.5,269.5 C 41.7321,270.263 41.2321,271.263 41,272.5C 40.2974,269.287 40.4641,266.121 41.5,263C 42.3839,261.902 43.3839,261.402 44.5,261.5C 43.6518,259.591 43.3184,257.591 43.5,255.5C 46.728,254.586 50.0613,254.253 53.5,254.5C 53.5,263.5 53.5,272.5 53.5,281.5C 51.2075,281.756 49.0408,281.423 47,280.5C 46.501,276.179 46.3343,271.846 46.5,267.5C 44.6203,267.229 43.287,267.896 42.5,269.5 Z"/></g>
<g><path style="opacity:1" fill="#f74612" d="M 27.5,255.5 C 28.9857,261.425 29.4857,267.425 29,273.5C 28.5831,272.244 27.7498,271.577 26.5,271.5C 26.5,271.167 26.5,270.833 26.5,270.5C 26.8333,267.5 25.5,266.167 22.5,266.5C 22.5,271.167 22.5,275.833 22.5,280.5C 19.3247,281.091 16.9913,280.091 15.5,277.5C 15.5,269.5 15.5,261.5 15.5,253.5C 19.1817,253.335 22.8484,253.501 26.5,254C 27.056,254.383 27.3893,254.883 27.5,255.5 Z"/></g>
<g><path style="opacity:1" fill="#d45126" d="M 329.5,255.5 C 330.5,256.167 331.5,256.833 332.5,257.5C 333.186,261.287 332.186,264.454 329.5,267C 332.023,268.36 334.023,270.193 335.5,272.5C 335.765,277.564 333.431,280.564 328.5,281.5C 320.981,281.825 313.648,281.492 306.5,280.5C 313.863,280.831 321.197,280.497 328.5,279.5C 334.932,276.16 335.099,272.493 329,268.5C 328.506,266.866 328.34,265.199 328.5,263.5C 329.5,263.5 330.5,263.5 331.5,263.5C 331.713,260.549 331.046,257.882 329.5,255.5 Z"/></g>
<g><path style="opacity:1" fill="#fbd5be" d="M 332.5,257.5 C 333.748,258.334 334.415,259.667 334.5,261.5C 334.284,263.384 333.617,265.051 332.5,266.5C 334.415,268.071 335.415,270.071 335.5,272.5C 334.023,270.193 332.023,268.36 329.5,267C 332.186,264.454 333.186,261.287 332.5,257.5 Z"/></g>
<g><path style="opacity:1" fill="#c4512d" d="M 54.5,281.5 C 54.5,281.833 54.5,282.167 54.5,282.5C 51.8127,282.664 49.146,282.497 46.5,282C 45.6971,277.586 45.1971,273.086 45,268.5C 44.3918,270.066 43.5585,271.4 42.5,272.5C 42.5,271.5 42.5,270.5 42.5,269.5C 43.287,267.896 44.6203,267.229 46.5,267.5C 46.3343,271.846 46.501,276.179 47,280.5C 49.0408,281.423 51.2075,281.756 53.5,281.5C 53.5,272.5 53.5,263.5 53.5,254.5C 50.0613,254.253 46.728,254.586 43.5,255.5C 43.1667,255.5 42.8333,255.5 42.5,255.5C 42.6107,254.883 42.944,254.383 43.5,254C 47.1516,253.501 50.8183,253.335 54.5,253.5C 54.5,262.833 54.5,272.167 54.5,281.5 Z"/></g>
<g><path style="opacity:1" fill="#bd502c" d="M 261.5,279.5 C 261.737,280.791 261.404,281.791 260.5,282.5C 257.833,282.5 255.167,282.5 252.5,282.5C 252.5,278.833 252.5,275.167 252.5,271.5C 253.167,274.5 253.833,277.5 254.5,280.5C 256.5,280.5 258.5,280.5 260.5,280.5C 260.666,272.16 260.5,263.827 260,255.5C 258.301,254.594 256.467,254.261 254.5,254.5C 253.833,257.5 253.167,260.5 252.5,263.5C 252.5,260.167 252.5,256.833 252.5,253.5C 255.5,253.5 258.5,253.5 261.5,253.5C 261.5,262.167 261.5,270.833 261.5,279.5 Z"/></g>
<g><path style="opacity:1" fill="#ed4819" d="M 276.5,271.5 C 278.39,275.942 281.723,277.442 286.5,276C 287.056,275.617 287.389,275.117 287.5,274.5C 288.906,274.027 289.573,273.027 289.5,271.5C 290.489,266.025 290.822,260.358 290.5,254.5C 292.792,254.244 294.959,254.577 297,255.5C 297.499,261.491 297.666,267.491 297.5,273.5C 297.5,274.167 297.5,274.833 297.5,275.5C 296.752,277.332 295.752,278.999 294.5,280.5C 288.647,282.399 282.647,282.899 276.5,282C 273.424,280.757 270.757,278.923 268.5,276.5C 268.5,275.167 268.5,273.833 268.5,272.5C 268.178,266.642 268.511,260.975 269.5,255.5C 271.265,254.539 273.265,254.205 275.5,254.5C 275.178,260.358 275.511,266.025 276.5,271.5 Z"/></g>
<g><path style="opacity:1" fill="#f74613" d="M 102.5,254.5 C 102.389,255.117 102.056,255.617 101.5,256C 105.16,257.448 108.827,257.948 112.5,257.5C 110.031,258.168 107.698,258.835 105.5,259.5C 105.5,261.833 105.5,264.167 105.5,266.5C 109.042,266.813 112.375,266.479 115.5,265.5C 117.104,264.713 117.771,263.38 117.5,261.5C 116.952,259.606 115.952,257.94 114.5,256.5C 115,256.167 115.5,255.833 116,255.5C 118.292,256.931 120.792,257.764 123.5,258C 124.435,260.381 124.768,262.881 124.5,265.5C 123.167,265.5 121.833,265.5 120.5,265.5C 120.5,268.167 120.5,270.833 120.5,273.5C 121.959,273.433 123.292,273.766 124.5,274.5C 126.25,275.659 127.25,277.326 127.5,279.5C 126.848,280.725 125.681,281.392 124,281.5C 122.833,281.333 121.667,281.167 120.5,281C 118.996,277.656 116.996,274.656 114.5,272C 111.633,271.199 108.966,271.366 106.5,272.5C 104.345,274.617 103.345,277.284 103.5,280.5C 101.833,280.5 100.167,280.5 98.5,280.5C 98.5,271.833 98.5,263.167 98.5,254.5C 99.8333,254.5 101.167,254.5 102.5,254.5 Z"/></g>
<g><path style="opacity:1" fill="#fbece0" d="M 239.5,253.5 C 236.833,253.5 234.167,253.5 231.5,253.5C 231.5,263.167 231.5,272.833 231.5,282.5C 234.167,282.5 236.833,282.5 239.5,282.5C 237.012,284.388 234.012,285.055 230.5,284.5C 230.832,274.81 230.498,265.144 229.5,255.5C 228.828,256.949 228.161,258.282 227.5,259.5C 225.012,261.388 222.012,262.055 218.5,261.5C 218.5,262.833 218.5,264.167 218.5,265.5C 222.92,266.09 223.586,268.09 220.5,271.5C 221.554,282.456 216.887,286.456 206.5,283.5C 206.5,282.167 206.5,280.833 206.5,279.5C 205.022,279.762 203.689,279.429 202.5,278.5C 203.325,277.614 204.325,277.281 205.5,277.5C 206.105,272.587 206.105,267.587 205.5,262.5C 204.5,262.5 203.5,262.5 202.5,262.5C 202.5,264.167 202.5,265.833 202.5,267.5C 199.458,268.541 196.458,268.541 193.5,267.5C 193.739,269.467 193.406,271.301 192.5,273C 193.549,273.492 194.549,273.326 195.5,272.5C 196.552,274.542 197.219,276.708 197.5,279C 197.316,280.376 196.649,281.209 195.5,281.5C 195.5,279.5 195.5,277.5 195.5,275.5C 189.167,275.5 182.833,275.5 176.5,275.5C 176.5,274.167 176.5,272.833 176.5,271.5C 181.179,271.666 185.845,271.499 190.5,271C 191.423,268.959 191.756,266.792 191.5,264.5C 186.5,264.5 181.5,264.5 176.5,264.5C 176.5,263.167 176.5,261.833 176.5,260.5C 182.833,260.5 189.167,260.5 195.5,260.5C 195.5,258.5 195.5,256.5 195.5,254.5C 196.404,253.791 196.737,252.791 196.5,251.5C 203.12,252.18 209.787,252.18 216.5,251.5C 222.204,251.413 227.537,250.413 232.5,248.5C 232.351,249.552 232.517,250.552 233,251.5C 234.11,249.963 235.61,249.297 237.5,249.5C 237.527,251.199 238.194,252.533 239.5,253.5 Z"/></g>
<g><path style="opacity:1" fill="#ef4918" d="M 226.5,259.5 C 223.713,260.477 220.713,260.81 217.5,260.5C 217.825,267.687 217.491,274.687 216.5,281.5C 214.167,281.5 211.833,281.5 209.5,281.5C 209.824,274.646 209.491,267.979 208.5,261.5C 208.5,260.833 208.167,260.5 207.5,260.5C 205.052,259.527 202.385,259.194 199.5,259.5C 199.5,257.833 199.5,256.167 199.5,254.5C 208.5,254.5 217.5,254.5 226.5,254.5C 226.5,256.167 226.5,257.833 226.5,259.5 Z"/></g>
<g><path style="opacity:1" fill="#b84c2a" d="M 227.5,259.5 C 227.167,259.5 226.833,259.5 226.5,259.5C 226.5,257.833 226.5,256.167 226.5,254.5C 217.5,254.5 208.5,254.5 199.5,254.5C 199.5,256.167 199.5,257.833 199.5,259.5C 202.385,259.194 205.052,259.527 207.5,260.5C 204.833,260.5 202.167,260.5 199.5,260.5C 198.532,258.393 198.198,256.059 198.5,253.5C 208.167,253.5 217.833,253.5 227.5,253.5C 227.5,255.5 227.5,257.5 227.5,259.5 Z"/></g>
<g><path style="opacity:1" fill="#f54713" d="M 157.5,263.5 C 156.524,264.815 155.524,266.148 154.5,267.5C 158.036,270.376 160.37,274.043 161.5,278.5C 161.5,279.5 161.5,280.5 161.5,281.5C 159.473,281.662 157.473,281.495 155.5,281C 153.637,277.66 151.637,274.493 149.5,271.5C 148.019,269.753 146.019,268.586 143.5,268C 146.641,267.285 148.641,265.452 149.5,262.5C 149.328,261.508 149.662,260.842 150.5,260.5C 152.179,259 153.512,257.167 154.5,255C 156.473,254.505 158.473,254.338 160.5,254.5C 160.5,255.5 160.5,256.5 160.5,257.5C 158.654,257.222 157.32,257.889 156.5,259.5C 157.246,260.736 157.579,262.07 157.5,263.5 Z"/></g>
<g><path style="opacity:1" fill="#fa460e" d="M 239.5,255.5 C 238.624,255.369 237.957,255.702 237.5,256.5C 238.309,258.071 238.643,259.738 238.5,261.5C 237.167,261.5 235.833,261.5 234.5,261.5C 234.5,262.5 234.5,263.5 234.5,264.5C 239.222,266.102 243.889,267.268 248.5,268C 245.312,269.316 241.978,269.816 238.5,269.5C 238.833,272.5 237.5,273.833 234.5,273.5C 234.5,274.833 234.5,276.167 234.5,277.5C 235.675,277.281 236.675,277.614 237.5,278.5C 235.955,279.452 234.288,279.785 232.5,279.5C 232.5,271.167 232.5,262.833 232.5,254.5C 235.059,254.198 237.393,254.532 239.5,255.5 Z"/></g>
<g><path style="opacity:1" fill="#da491c" d="M 135.5,254.5 C 135.5,254.167 135.5,253.833 135.5,253.5C 137.735,253.205 139.735,253.539 141.5,254.5C 141.5,257.833 141.5,261.167 141.5,264.5C 144.513,264.893 147.18,264.226 149.5,262.5C 148.641,265.452 146.641,267.285 143.5,268C 146.019,268.586 148.019,269.753 149.5,271.5C 149.167,271.5 148.833,271.5 148.5,271.5C 146.167,271.5 143.833,271.5 141.5,271.5C 142.08,275.649 141.414,279.316 139.5,282.5C 137.265,282.795 135.265,282.461 133.5,281.5C 133.174,272.651 133.507,263.984 134.5,255.5C 134.5,263.833 134.5,272.167 134.5,280.5C 136.5,280.5 138.5,280.5 140.5,280.5C 140.5,271.833 140.5,263.167 140.5,254.5C 138.833,254.5 137.167,254.5 135.5,254.5 Z"/></g>
<g><path style="opacity:1" fill="#ab492d" d="M 208.5,261.5 C 209.491,267.979 209.824,274.646 209.5,281.5C 211.833,281.5 214.167,281.5 216.5,281.5C 213.833,282.833 211.167,282.833 208.5,281.5C 208.5,274.833 208.5,268.167 208.5,261.5 Z"/></g>
<g><path style="opacity:1" fill="#ffdcc5" d="M 84.5,259.5 C 88.7702,264.714 91.4369,270.714 92.5,277.5C 92.1667,277.5 91.8333,277.5 91.5,277.5C 89.1601,271.489 86.8268,265.489 84.5,259.5 Z"/></g>
<g><path style="opacity:1" fill="#d84e23" d="M 176.5,260.5 C 176.5,261.833 176.5,263.167 176.5,264.5C 181.5,264.5 186.5,264.5 191.5,264.5C 191.756,266.792 191.423,268.959 190.5,271C 185.845,271.499 181.179,271.666 176.5,271.5C 176.5,272.833 176.5,274.167 176.5,275.5C 174.324,274.287 173.991,272.62 175.5,270.5C 180.456,269.506 185.456,269.173 190.5,269.5C 190.5,268.5 190.5,267.5 190.5,266.5C 185.901,266.2 181.401,266.533 177,267.5C 175.402,265.105 175.236,262.772 176.5,260.5 Z"/></g>
<g><path style="opacity:1" fill="#fedcca" d="M 81.5,253.5 C 77.8183,253.335 74.1516,253.501 70.5,254C 68.4823,256.889 67.1489,260.055 66.5,263.5C 64.7073,265.426 63.7073,267.759 63.5,270.5C 60.7633,273.983 59.0966,277.983 58.5,282.5C 61.6085,282.736 64.6085,282.403 67.5,281.5C 66.3064,282.777 64.6397,283.444 62.5,283.5C 59.56,283.617 56.8933,282.95 54.5,281.5C 54.5,272.167 54.5,262.833 54.5,253.5C 50.8183,253.335 47.1516,253.501 43.5,254C 42.944,254.383 42.6107,254.883 42.5,255.5C 40.5,259.833 38.5,264.167 36.5,268.5C 37.4745,263.099 39.1412,257.932 41.5,253C 46.1667,252.333 50.8333,252.333 55.5,253C 56.4808,260.413 56.8142,267.913 56.5,275.5C 57.5,275.5 58.5,275.5 59.5,275.5C 59.6427,273.738 59.3094,272.071 58.5,270.5C 60.1487,269.352 61.6487,268.019 63,266.5C 65.1935,262.251 67.1935,257.918 69,253.5C 73.2669,252.178 77.4336,252.178 81.5,253.5 Z"/></g>
<g><path style="opacity:1" fill="#feceb8" d="M 199.5,260.5 C 202.167,260.5 204.833,260.5 207.5,260.5C 208.167,260.5 208.5,260.833 208.5,261.5C 208.5,268.167 208.5,274.833 208.5,281.5C 207.509,275.021 207.176,268.354 207.5,261.5C 204.615,261.806 201.948,261.473 199.5,260.5 Z"/></g>
<g><path style="opacity:1" fill="#f24814" d="M 328.5,255.5 C 328.833,255.5 329.167,255.5 329.5,255.5C 331.046,257.882 331.713,260.549 331.5,263.5C 330.5,263.5 329.5,263.5 328.5,263.5C 328.34,265.199 328.506,266.866 329,268.5C 335.099,272.493 334.932,276.16 328.5,279.5C 321.197,280.497 313.863,280.831 306.5,280.5C 305.507,272.016 305.174,263.349 305.5,254.5C 312.289,253.899 318.789,254.566 325,256.5C 326.011,255.663 327.178,255.33 328.5,255.5 Z"/></g>
<g><path style="opacity:1" fill="#fddecc" d="M 313.5,259.5 C 316.518,259.335 319.518,259.502 322.5,260C 323.833,261.333 323.833,262.667 322.5,264C 319.518,264.498 316.518,264.665 313.5,264.5C 313.5,262.833 313.5,261.167 313.5,259.5 Z"/></g>
<g><path style="opacity:1" fill="#cd4923" d="M 26.5,270.5 C 25.6851,269.571 24.8518,268.571 24,267.5C 23.5008,272.155 23.3342,276.821 23.5,281.5C 21.0521,282.473 18.3854,282.806 15.5,282.5C 15.5,280.833 15.5,279.167 15.5,277.5C 16.9913,280.091 19.3247,281.091 22.5,280.5C 22.5,275.833 22.5,271.167 22.5,266.5C 25.5,266.167 26.8333,267.5 26.5,270.5 Z"/></g>
<g><path style="opacity:1" fill="#cb532d" d="M 98.5,253.5 C 105.022,253.177 111.355,253.51 117.5,254.5C 112.5,254.5 107.5,254.5 102.5,254.5C 101.167,254.5 99.8333,254.5 98.5,254.5C 98.5,263.167 98.5,271.833 98.5,280.5C 100.167,280.5 101.833,280.5 103.5,280.5C 103.345,277.284 104.345,274.617 106.5,272.5C 106.665,275.518 106.498,278.518 106,281.5C 103.281,282.444 100.448,282.777 97.5,282.5C 97.5,273.167 97.5,263.833 97.5,254.5C 97.5,253.833 97.8333,253.5 98.5,253.5 Z"/></g>
<g><path style="opacity:1" fill="#ec5121" d="M 254.5,254.5 C 254.95,256.984 255.283,259.484 255.5,262C 254.224,264.281 252.557,266.281 250.5,268C 252.813,268.641 254.48,269.974 255.5,272C 254.652,274.77 254.319,277.603 254.5,280.5C 253.833,277.5 253.167,274.5 252.5,271.5C 248.5,271.5 244.5,271.5 240.5,271.5C 239.521,274.625 239.187,277.958 239.5,281.5C 236.612,282.01 234.279,281.344 232.5,279.5C 234.288,279.785 235.955,279.452 237.5,278.5C 236.675,277.614 235.675,277.281 234.5,277.5C 234.5,276.167 234.5,274.833 234.5,273.5C 237.5,273.833 238.833,272.5 238.5,269.5C 241.978,269.816 245.312,269.316 248.5,268C 243.889,267.268 239.222,266.102 234.5,264.5C 234.5,263.5 234.5,262.5 234.5,261.5C 235.833,261.5 237.167,261.5 238.5,261.5C 238.643,259.738 238.309,258.071 237.5,256.5C 237.957,255.702 238.624,255.369 239.5,255.5C 239.194,258.385 239.527,261.052 240.5,263.5C 244.5,263.5 248.5,263.5 252.5,263.5C 253.167,260.5 253.833,257.5 254.5,254.5 Z"/></g>
<g><path style="opacity:1" fill="#f9c6a6" d="M 324.5,271.5 C 325.434,272.568 325.768,273.901 325.5,275.5C 321.5,275.5 317.5,275.5 313.5,275.5C 313.5,273.833 313.5,272.167 313.5,270.5C 317.371,270.185 321.038,270.518 324.5,271.5 Z"/></g>
<g><path style="opacity:1" fill="#fbeae4" d="M 324.5,271.5 C 324.38,272.586 323.713,273.253 322.5,273.5C 319.833,273.167 317.167,272.833 314.5,272.5C 317.768,271.513 321.102,271.18 324.5,271.5 Z"/></g>
<g><path style="opacity:1" fill="#fde2d0" d="M 240.5,271.5 C 244.5,271.5 248.5,271.5 252.5,271.5C 252.5,275.167 252.5,278.833 252.5,282.5C 255.167,282.5 257.833,282.5 260.5,282.5C 258.205,284.385 255.538,284.885 252.5,284C 251.707,280.589 251.207,277.089 251,273.5C 244.716,271.484 241.716,273.817 242,280.5C 241.617,281.056 241.117,281.389 240.5,281.5C 240.5,278.167 240.5,274.833 240.5,271.5 Z"/></g>
<g><path style="opacity:1" fill="#fedac3" d="M 287.5,274.5 C 287.389,275.117 287.056,275.617 286.5,276C 281.723,277.442 278.39,275.942 276.5,271.5C 276.5,265.5 276.5,259.5 276.5,253.5C 273.552,253.223 270.719,253.556 268,254.5C 267.181,260.681 267.347,266.681 268.5,272.5C 268.5,273.833 268.5,275.167 268.5,276.5C 267.833,276.5 267.5,276.167 267.5,275.5C 266.403,268.216 266.237,260.882 267,253.5C 270.394,252.544 273.894,252.211 277.5,252.5C 277.334,258.842 277.5,265.175 278,271.5C 278.374,272.416 278.874,273.25 279.5,274C 282.146,274.497 284.813,274.664 287.5,274.5 Z"/></g>
<g><path style="opacity:1" fill="#cd6e4e" d="M 276.5,271.5 C 275.511,266.025 275.178,260.358 275.5,254.5C 273.265,254.205 271.265,254.539 269.5,255.5C 268.511,260.975 268.178,266.642 268.5,272.5C 267.347,266.681 267.181,260.681 268,254.5C 270.719,253.556 273.552,253.223 276.5,253.5C 276.5,259.5 276.5,265.5 276.5,271.5 Z"/></g>
<g><path style="opacity:1" fill="#fc450c" d="M 269.5,255.5 C 270.833,255.5 272.167,255.5 273.5,255.5C 273.5,260.833 273.5,266.167 273.5,271.5C 272.167,271.5 270.833,271.5 269.5,271.5C 269.5,266.167 269.5,260.833 269.5,255.5 Z"/></g>
<g><path style="opacity:1" fill="#e9491a" d="M 27.5,255.5 C 29.8872,261.141 32.3872,266.808 35,272.5C 35.7914,271.255 36.2914,269.922 36.5,268.5C 38.5,264.167 40.5,259.833 42.5,255.5C 42.8333,255.5 43.1667,255.5 43.5,255.5C 43.3184,257.591 43.6518,259.591 44.5,261.5C 43.3839,261.402 42.3839,261.902 41.5,263C 40.4641,266.121 40.2974,269.287 41,272.5C 41.2321,271.263 41.7321,270.263 42.5,269.5C 42.5,270.5 42.5,271.5 42.5,272.5C 41.7837,275.598 40.7837,278.598 39.5,281.5C 36.9272,282.555 34.2605,282.722 31.5,282C 29.1638,278.828 27.4972,275.328 26.5,271.5C 27.7498,271.577 28.5831,272.244 29,273.5C 29.4857,267.425 28.9857,261.425 27.5,255.5 Z"/></g>
<g><path style="opacity:1" fill="#ca522d" d="M 63.5,270.5 C 63.3706,273.766 62.3706,276.766 60.5,279.5C 62.396,280.466 64.396,280.799 66.5,280.5C 66.33,279.178 66.6634,278.011 67.5,277C 72.8333,276.333 78.1667,276.333 83.5,277C 84.3802,278.356 84.7135,279.856 84.5,281.5C 83.6091,280.739 82.9424,279.739 82.5,278.5C 77.8333,277.167 73.1667,277.167 68.5,278.5C 67.8728,279.417 67.5394,280.417 67.5,281.5C 64.6085,282.403 61.6085,282.736 58.5,282.5C 59.0966,277.983 60.7633,273.983 63.5,270.5 Z"/></g>
<g><path style="opacity:1" fill="#f24815" d="M 81.5,254.5 C 82.2632,256.368 83.2632,258.035 84.5,259.5C 86.8268,265.489 89.1601,271.489 91.5,277.5C 91.5,278.833 91.5,280.167 91.5,281.5C 89.1667,281.5 86.8333,281.5 84.5,281.5C 84.7135,279.856 84.3802,278.356 83.5,277C 78.1667,276.333 72.8333,276.333 67.5,277C 66.6634,278.011 66.33,279.178 66.5,280.5C 64.396,280.799 62.396,280.466 60.5,279.5C 62.3706,276.766 63.3706,273.766 63.5,270.5C 63.7073,267.759 64.7073,265.426 66.5,263.5C 67.1499,263.196 67.8165,262.863 68.5,262.5C 69.3491,260.106 70.3491,257.773 71.5,255.5C 74.7683,254.513 78.1016,254.18 81.5,254.5 Z"/></g>
<g><path style="opacity:1" fill="#c05a2d" d="M 74.5,262.5 C 73.8333,265.167 73.1667,267.833 72.5,270.5C 74.5,270.5 76.5,270.5 78.5,270.5C 78.5674,269.041 78.2341,267.708 77.5,266.5C 79.256,267.552 79.9227,269.219 79.5,271.5C 76.8333,271.5 74.1667,271.5 71.5,271.5C 71.1376,267.919 72.1376,264.919 74.5,262.5 Z"/></g>
<g><path style="opacity:1" fill="#fddcc9" d="M 74.5,262.5 C 76.4456,263.035 77.4456,264.368 77.5,266.5C 78.2341,267.708 78.5674,269.041 78.5,270.5C 76.5,270.5 74.5,270.5 72.5,270.5C 73.1667,267.833 73.8333,265.167 74.5,262.5 Z"/></g>
<g><path style="opacity:1" fill="#e8a07a" d="M 26.5,270.5 C 26.5,270.833 26.5,271.167 26.5,271.5C 24.8813,274.548 23.8813,277.881 23.5,281.5C 23.3342,276.821 23.5008,272.155 24,267.5C 24.8518,268.571 25.6851,269.571 26.5,270.5 Z"/></g>
<g><path style="opacity:1" fill="#ab4c2c" d="M 91.5,277.5 C 91.8333,277.5 92.1667,277.5 92.5,277.5C 92.6287,279.216 92.962,280.883 93.5,282.5C 90.2869,282.81 87.2869,282.477 84.5,281.5C 86.8333,281.5 89.1667,281.5 91.5,281.5C 91.5,280.167 91.5,278.833 91.5,277.5 Z"/></g>
<g><path style="opacity:1" fill="#b64f31" d="M 148.5,271.5 C 148.833,271.5 149.167,271.5 149.5,271.5C 151.637,274.493 153.637,277.66 155.5,281C 157.473,281.495 159.473,281.662 161.5,281.5C 161.5,280.5 161.5,279.5 161.5,278.5C 163.104,279.287 163.771,280.62 163.5,282.5C 160.833,282.5 158.167,282.5 155.5,282.5C 152.806,279.124 150.473,275.457 148.5,271.5 Z"/></g>
<g><path style="opacity:1" fill="#b75a37" d="M 304.5,253.5 C 311.841,253.334 319.174,253.5 326.5,254C 327.416,254.278 328.082,254.778 328.5,255.5C 327.178,255.33 326.011,255.663 325,256.5C 318.789,254.566 312.289,253.899 305.5,254.5C 305.174,263.349 305.507,272.016 306.5,280.5C 313.648,281.492 320.981,281.825 328.5,281.5C 328.5,281.833 328.5,282.167 328.5,282.5C 320.58,282.815 312.747,282.482 305,281.5C 304.5,272.173 304.334,262.839 304.5,253.5 Z"/></g>
<g><path style="opacity:1" fill="#fde7da" d="M 54.5,282.5 C 52.0523,283.791 49.5523,285.124 47,286.5C 46.0853,285.672 45.4186,284.672 45,283.5C 44.586,283.957 44.086,284.291 43.5,284.5C 42.7189,283.271 42.2189,281.938 42,280.5C 41.3292,281.252 40.4959,281.586 39.5,281.5C 40.7837,278.598 41.7837,275.598 42.5,272.5C 43.5585,271.4 44.3918,270.066 45,268.5C 45.1971,273.086 45.6971,277.586 46.5,282C 49.146,282.497 51.8127,282.664 54.5,282.5 Z"/></g>
<g><path style="opacity:1" fill="#fde7dc" d="M 97.5,254.5 C 97.5,263.833 97.5,273.167 97.5,282.5C 100.448,282.777 103.281,282.444 106,281.5C 106.498,278.518 106.665,275.518 106.5,272.5C 108.857,272.337 111.19,272.503 113.5,273C 115.996,275.656 117.996,278.656 119.5,282C 122.482,282.498 125.482,282.665 128.5,282.5C 128.737,281.209 128.404,280.209 127.5,279.5C 127.25,277.326 126.25,275.659 124.5,274.5C 124.141,272.629 123.141,271.129 121.5,270C 124.023,268.64 126.023,266.807 127.5,264.5C 127.451,267.099 126.451,269.266 124.5,271C 126.303,273.103 128.636,273.936 131.5,273.5C 131.177,267.31 131.51,261.31 132.5,255.5C 132.174,264.349 132.507,273.016 133.5,281.5C 135.265,282.461 137.265,282.795 139.5,282.5C 138.763,284.305 137.763,285.971 136.5,287.5C 135.614,286.675 135.281,285.675 135.5,284.5C 134.167,284.5 132.833,284.5 131.5,284.5C 131.367,287.896 130.367,288.229 128.5,285.5C 126.902,286.485 125.235,286.651 123.5,286C 124.167,285.333 124.833,284.667 125.5,284C 122.237,283.936 119.237,283.102 116.5,281.5C 115.18,283.651 113.68,285.651 112,287.5C 111.814,285.1 111.314,282.766 110.5,280.5C 109.5,281 108.5,281.5 107.5,282C 109.107,283.049 109.773,284.549 109.5,286.5C 104.513,285.116 99.6797,283.449 95,281.5C 94.6174,282.056 94.1174,282.389 93.5,282.5C 92.962,280.883 92.6287,279.216 92.5,277.5C 93.5,277.5 94.5,277.5 95.5,277.5C 95.3739,275.8 94.7073,274.3 93.5,273C 95.1876,267.34 96.0209,261.507 96,255.5C 96.3826,254.944 96.8826,254.611 97.5,254.5 Z"/></g>
<g><path style="opacity:1" fill="#bc4c29" d="M 106.5,272.5 C 108.966,271.366 111.633,271.199 114.5,272C 116.996,274.656 118.996,277.656 120.5,281C 121.667,281.167 122.833,281.333 124,281.5C 125.681,281.392 126.848,280.725 127.5,279.5C 128.404,280.209 128.737,281.209 128.5,282.5C 125.482,282.665 122.482,282.498 119.5,282C 117.996,278.656 115.996,275.656 113.5,273C 111.19,272.503 108.857,272.337 106.5,272.5 Z"/></g>
<g><path style="opacity:1" fill="#fce9dc" d="M 115.5,260.5 C 116.167,260.833 116.833,261.167 117.5,261.5C 117.771,263.38 117.104,264.713 115.5,265.5C 112.5,265.5 109.5,265.5 106.5,265.5C 106.5,263.833 106.5,262.167 106.5,260.5C 109.5,260.5 112.5,260.5 115.5,260.5 Z"/></g>
<g><path style="opacity:1" fill="#f9ad90" d="M 105.5,259.5 C 109.042,259.187 112.375,259.521 115.5,260.5C 112.5,260.5 109.5,260.5 106.5,260.5C 106.5,262.167 106.5,263.833 106.5,265.5C 109.5,265.5 112.5,265.5 115.5,265.5C 112.375,266.479 109.042,266.813 105.5,266.5C 105.5,264.167 105.5,261.833 105.5,259.5 Z"/></g>
<g><path style="opacity:1" fill="#fddaca" d="M 268.5,276.5 C 270.757,278.923 273.424,280.757 276.5,282C 282.647,282.899 288.647,282.399 294.5,280.5C 293.653,281.966 292.32,282.8 290.5,283C 284.873,284.625 279.206,284.792 273.5,283.5C 272.272,281.679 270.606,280.679 268.5,280.5C 268.5,279.167 268.5,277.833 268.5,276.5 Z"/></g>
<g><path style="opacity:1" fill="#fceadf" d="M 162.5,253.5 C 162.519,260.393 162.519,267.393 162.5,274.5C 162.289,277.124 163.456,278.79 166,279.5C 166.171,271.323 166.671,263.323 167.5,255.5C 167.183,264.418 167.516,273.251 168.5,282C 177.494,282.5 186.494,282.666 195.5,282.5C 188.679,283.329 181.679,283.829 174.5,284C 172.557,285.555 170.39,286.722 168,287.5C 165.258,286.155 162.591,285.155 160,284.5C 157.892,285.612 156.392,284.946 155.5,282.5C 158.167,282.5 160.833,282.5 163.5,282.5C 163.771,280.62 163.104,279.287 161.5,278.5C 160.37,274.043 158.036,270.376 154.5,267.5C 155.524,266.148 156.524,264.815 157.5,263.5C 160.207,260.753 161.873,257.42 162.5,253.5 Z"/></g>
<g><path style="opacity:1" fill="#fde9db" d="M 289.5,253.5 C 294.347,252.381 299.347,252.381 304.5,253.5C 304.334,262.839 304.5,272.173 305,281.5C 312.747,282.482 320.58,282.815 328.5,282.5C 326.061,284.238 323.395,285.905 320.5,287.5C 319.719,286.271 319.219,284.938 319,283.5C 316.539,284.218 314.039,284.885 311.5,285.5C 309.5,284.167 307.5,284.167 305.5,285.5C 304.808,284.975 304.308,284.308 304,283.5C 303.667,284.833 303.333,286.167 303,287.5C 301.792,276.882 301.125,266.215 301,255.5C 300.831,261.859 300.331,268.193 299.5,274.5C 298.817,274.863 298.15,275.196 297.5,275.5C 297.5,274.833 297.5,274.167 297.5,273.5C 298.491,267.021 298.824,260.354 298.5,253.5C 295.5,253.5 292.5,253.5 289.5,253.5 Z"/></g>
</svg>
